<svg xmlns="http://www.w3.org/2000/svg" width="1200" height="1200" viewBox="0 0 1200 1200">
<rect width="1200" height="1200" fill="#f7f1e8"/>
<g fill="none" stroke="#b59b3a" stroke-width="6" stroke-linecap="round" stroke-linejoin="round">
<path d="M540 220c90 35 160 95 210 180"/>
<path d="M585 210c110 50 185 130 230 235"/>
<path d="M635 220c95 35 170 85 235 155"/>
<path d="M560 260c70 25 130 65 185 120"/>
<path d="M620 255c78 28 146 78 208 148"/>
<path d="M680 265c58 20 110 56 160 108"/>
</g>
<g fill="#b59b3a">
<ellipse cx="775" cy="425" rx="18" ry="24" transform="rotate(20 775 425)"/>
<ellipse cx="760" cy="462" rx="18" ry="24" transform="rotate(8 760 462)"/>
<ellipse cx="790" cy="462" rx="18" ry="24" transform="rotate(32 790 462)"/>
<ellipse cx="745" cy="495" rx="18" ry="24" transform="rotate(2 745 495)"/>
<ellipse cx="775" cy="500" rx="18" ry="24" transform="rotate(18 775 500)"/>
<ellipse cx="805" cy="500" rx="18" ry="24" transform="rotate(34 805 500)"/>
<ellipse cx="735" cy="535" rx="18" ry="24" transform="rotate(10 735 535)"/>
<ellipse cx="765" cy="540" rx="18" ry="24" transform="rotate(24 765 540)"/>
<ellipse cx="795" cy="540" rx="18" ry="24" transform="rotate(40 795 540)"/>
</g>
<line x1="220" y1="680" x2="980" y2="680" stroke="#b59b3a" stroke-width="4"/>
<circle cx="600" cy="680" r="10" fill="#b59b3a"/>
<text x="600" y="820" text-anchor="middle" font-family="Times New Roman, Georgia, serif" font-size="108" fill="#173a23" letter-spacing="6">SOSNOWE</text>
<text x="600" y="930" text-anchor="middle" font-family="Times New Roman, Georgia, serif" font-size="108" fill="#173a23" letter-spacing="6">CHWILE</text>
<line x1="220" y1="985" x2="980" y2="985" stroke="#b59b3a" stroke-width="4"/>
<circle cx="600" cy="985" r="10" fill="#b59b3a"/>
<text x="600" y="1080" text-anchor="middle" font-family="Arial, Helvetica, sans-serif" font-size="42" fill="#b59b3a" letter-spacing="8">PELLET DRZEWNY PREMIUM</text>
</svg>